<svg id="Layer_1" data-name="Layer 1" xmlns="http://www.w3.org/2000/svg" xmlns:xlink="http://www.w3.org/1999/xlink" viewBox="0 0 1000 1000"><defs><style>.cls-1,.cls-7{fill:none;}.cls-1{stroke:#225191;stroke-miterlimit:10;stroke-width:24px;}.cls-2{fill:url(#linear-gradient);}.cls-3{fill:#3b47fb;stroke-width:15px;}.cls-3,.cls-5,.cls-7{stroke:#fff;stroke-linecap:round;stroke-linejoin:round;}.cls-4{clip-path:url(#clip-path);}.cls-5{fill:#24cff1;}.cls-5,.cls-7{stroke-width:18px;}.cls-6{fill:#fff;}</style><linearGradient id="linear-gradient" x1="500" y1="941.37" x2="500" y2="58.63" gradientUnits="userSpaceOnUse"><stop offset="0" stop-color="#0077a9"/><stop offset="0.13" stop-color="#0c5c96"/><stop offset="0.32" stop-color="#193d80"/><stop offset="0.5" stop-color="#232671"/><stop offset="0.67" stop-color="#291967"/><stop offset="0.82" stop-color="#2b1464"/></linearGradient><clipPath id="clip-path"><path class="cls-1" d="M822.22,399.11c0,177.21-225.49,542.26-320.37,542.26s-324.07-365-324.07-542.26c0-2,0-3.95,0-5.92q.18-19.37,1.62-38.41a.22.22,0,0,0,0-.08C196,188.4,333.18,58.63,500,58.63S804,188.4,820.55,354.7a.22.22,0,0,0,0,.08q1.47,19,1.62,38.41C822.21,395.16,822.22,397.13,822.22,399.11Z"/></clipPath></defs><path class="cls-2" d="M822.22,399.11c0,177.21-225.49,542.26-320.37,542.26s-324.07-365-324.07-542.26c0-2,0-3.95,0-5.92q.18-19.37,1.62-38.41a.22.22,0,0,0,0-.08C196,188.4,333.18,58.63,500,58.63S804,188.4,820.55,354.7a.22.22,0,0,0,0,.08q1.47,19,1.62,38.41C822.21,395.16,822.22,397.13,822.22,399.11Z"/><circle class="cls-3" cx="337.92" cy="400.21" r="56.46"/><circle class="cls-3" cx="500" cy="400.21" r="56.46"/><circle class="cls-3" cx="662.08" cy="400.21" r="56.46"/><g class="cls-4"><path class="cls-5" d="M630.86,742.39,500,624.48,369.14,742.39V945.84l88.58-.45v-116l85.23-.15V945.39l87.91.45Z"/><rect class="cls-6" x="470.25" y="945.84" width="60.16" height="0.57"/><polygon class="cls-7" points="740.79 841.13 500 1081.92 259.21 841.13 500 624.48 740.79 841.13"/></g><path class="cls-1" d="M822.22,399.11c0,177.21-225.49,542.26-320.37,542.26s-324.07-365-324.07-542.26c0-2,0-3.95,0-5.92q.18-19.37,1.62-38.41a.22.22,0,0,0,0-.08C196,188.4,333.18,58.63,500,58.63S804,188.4,820.55,354.7a.22.22,0,0,0,0,.08q1.47,19,1.62,38.41C822.21,395.16,822.22,397.13,822.22,399.11Z"/></svg>